<?xml version="1.0" standalone="no"?>
<!DOCTYPE svg PUBLIC "-//W3C//DTD SVG 20010904//EN"
 "http://www.w3.org/TR/2001/REC-SVG-20010904/DTD/svg10.dtd">
<svg version="1.0" xmlns="http://www.w3.org/2000/svg"
 width="16.000000pt" height="16.000000pt" viewBox="0 0 16.000000 16.000000"
 preserveAspectRatio="xMidYMid meet">
<metadata>
Created by potrace 1.11, written by Peter Selinger 2001-2013
</metadata>
<g transform="translate(0.000000,16.000000) scale(0.001042,-0.001042)"
fill="#000000" stroke="none">
<path d="M3000 8399 c-137 -79 -101 -280 57 -314 107 -22 218 90 197 201 -8
41 -53 98 -95 120 -41 21 -117 17 -159 -7z"/>
<path d="M11570 7685 l0 -695 130 0 130 0 0 65 0 66 81 107 c44 59 84 108 88
110 5 2 52 -76 106 -173 l97 -175 145 0 c120 0 144 2 140 14 -3 8 -76 136
-161 286 -86 150 -156 275 -156 277 0 3 69 92 153 197 84 105 156 197 161 204
6 9 -24 12 -138 12 l-145 0 -183 -232 -183 -232 -3 432 -2 432 -130 0 -130 0
0 -695z"/>
<path d="M3430 7655 l0 -665 135 0 135 0 0 265 0 265 265 0 265 0 0 -265 0
-265 135 0 135 0 0 665 0 665 -135 0 -135 0 0 -265 0 -265 -265 0 -265 0 0
265 0 265 -135 0 -135 0 0 -665z"/>
<path d="M5008 8001 c-304 -97 -449 -445 -309 -738 179 -372 680 -392 891 -34
94 161 95 383 0 542 -70 118 -178 202 -304 235 -73 20 -209 17 -278 -5z m247
-260 c166 -76 198 -331 56 -452 -164 -141 -402 -19 -400 206 0 120 41 194 131
239 64 32 152 35 213 7z"/>
<path d="M7570 8006 c-172 -48 -303 -181 -355 -360 -22 -76 -22 -226 0 -302
53 -182 212 -329 393 -365 80 -15 192 -6 267 22 73 27 168 93 211 145 l33 40
-93 93 -93 92 -24 -36 c-48 -71 -139 -112 -228 -103 l-33 3 235 284 c189 227
234 288 227 301 -16 30 -114 114 -166 142 -28 15 -77 34 -109 43 -70 18 -202
18 -265 1z m200 -249 c0 -2 -65 -90 -145 -197 -140 -187 -145 -192 -155 -166
-14 38 -12 164 4 209 36 98 122 157 234 157 34 0 62 -1 62 -3z"/>
<path d="M10003 8005 c-170 -46 -317 -202 -359 -381 -19 -83 -15 -225 10 -297
89 -254 355 -406 599 -342 322 84 484 444 338 751 -64 133 -182 234 -318 269
-71 19 -201 18 -270 0z m248 -272 c172 -88 182 -364 15 -467 -99 -62 -236 -41
-311 47 -93 108 -85 287 17 384 73 70 183 84 279 36z"/>
<path d="M6063 7982 c-28 -10 -69 -30 -91 -45 l-39 -26 -39 40 c-26 27 -47 39
-66 39 l-28 0 0 -500 0 -500 130 0 130 0 0 337 0 336 25 33 c31 40 80 56 130
43 20 -6 45 -24 60 -43 l25 -33 0 -336 0 -337 130 0 130 0 0 326 c0 354 2 368
57 408 32 24 101 25 133 3 13 -9 31 -29 41 -44 17 -26 19 -54 19 -360 l0 -333
130 0 130 0 0 308 c0 169 -4 335 -9 369 -27 187 -169 320 -352 331 -100 6
-171 -15 -231 -67 l-45 -40 -24 25 c-69 73 -236 105 -346 66z"/>
<path d="M2957 7983 c-4 -3 -7 -228 -7 -500 l0 -493 130 0 130 0 0 500 0 500
-123 0 c-68 0 -127 -3 -130 -7z"/>
<path d="M10787 7983 c-4 -3 -7 -228 -7 -500 l0 -493 130 0 130 0 0 293 c0
325 4 345 69 400 45 38 90 47 229 47 l122 0 0 125 0 125 -149 0 c-173 0 -245
-17 -331 -76 -28 -20 -53 -34 -54 -32 -1 2 -21 29 -44 61 -31 41 -49 57 -66
57 -12 0 -26 -3 -29 -7z"/>
<path d="M8242 7613 l3 -368 29 -58 c40 -78 108 -144 186 -181 58 -27 75 -31
155 -31 81 0 96 3 155 32 36 18 72 38 81 44 14 10 25 7 65 -19 65 -44 115 -57
209 -56 107 1 177 29 254 100 40 36 67 73 87 116 l29 63 3 363 3 362 -126 0
-125 0 0 -320 c0 -348 -3 -367 -55 -408 -34 -27 -104 -29 -141 -6 -52 35 -54
47 -54 404 l0 330 -130 0 -130 0 0 -331 c0 -288 -2 -334 -16 -359 -36 -60
-126 -80 -178 -39 -55 43 -56 51 -56 404 l0 325 -125 0 -126 0 3 -367z"/>
</g>
</svg>
