<?xml version="1.0" standalone="no"?>
<!DOCTYPE svg PUBLIC "-//W3C//DTD SVG 20010904//EN"
 "http://www.w3.org/TR/2001/REC-SVG-20010904/DTD/svg10.dtd">
<svg version="1.0" xmlns="http://www.w3.org/2000/svg"
 width="1536.000000pt" height="1536.000000pt" viewBox="0 0 1536.000000 1536.000000"
 preserveAspectRatio="xMidYMid meet">
<metadata>
Created by potrace 1.11, written by Peter Selinger 2001-2013
</metadata>
<g transform="translate(0.000000,1536.000000) scale(0.100000,-0.100000)"
fill="#000000" stroke="none">
<path d="M12865 8448 c-3 -7 -54 -368 -115 -803 -61 -434 -113 -805 -116 -822
-6 -33 -6 -33 32 -33 34 0 41 -5 54 -32 17 -37 56 -51 112 -42 73 11 77 18
108 239 30 214 35 235 55 235 7 0 72 -80 145 -177 73 -98 159 -204 192 -235
54 -51 66 -58 114 -64 81 -10 162 3 175 28 9 17 5 29 -27 74 -77 107 -197 259
-211 267 -7 5 -11 12 -8 18 4 5 2 9 -3 9 -12 0 -109 129 -113 150 -7 33 13 69
58 106 27 21 53 43 59 49 6 5 69 60 140 120 71 61 144 125 162 142 44 42 41
73 -8 86 l-35 9 35 29 34 29 -142 0 -142 0 -190 -167 c-105 -92 -198 -171
-206 -176 -12 -7 -14 -3 -9 20 9 48 115 804 115 819 0 21 -48 67 -61 58 -7 -4
-10 7 -7 32 l3 39 -98 3 c-72 2 -99 -1 -102 -10z"/>
<path d="M2535 8331 c-43 -26 -71 -60 -85 -104 -19 -60 -5 -95 68 -164 68 -66
104 -81 162 -68 64 14 130 96 130 160 0 30 -37 108 -48 101 -4 -2 -18 11 -32
30 -13 20 -36 42 -51 50 -39 20 -108 18 -144 -5z"/>
<path d="M3070 8338 c0 -6 -47 -350 -105 -764 -58 -413 -105 -759 -105 -768 0
-11 9 -16 33 -16 28 0 36 -5 48 -32 12 -28 22 -34 59 -42 68 -13 128 7 144 47
7 18 30 158 51 312 20 154 42 291 49 305 22 48 38 50 384 50 249 0 324 -3 327
-12 3 -7 -15 -151 -38 -320 l-43 -308 35 0 c31 0 38 -5 51 -32 18 -39 54 -51
128 -43 39 5 56 12 67 29 10 14 36 170 70 417 31 217 76 539 101 717 25 177
44 334 42 350 -2 19 -12 31 -36 42 -29 14 -32 18 -27 48 l6 32 -111 0 c-60 0
-110 -3 -110 -7 0 -13 -80 -587 -86 -615 l-6 -28 -349 0 c-307 0 -350 2 -356
16 -3 8 9 125 28 260 30 223 32 248 18 272 -8 15 -24 28 -36 30 -19 3 -21 8
-16 38 l6 34 -112 0 c-79 0 -111 -3 -111 -12z"/>
<path d="M4947 7844 c-197 -47 -397 -231 -462 -421 -73 -216 -29 -395 137
-561 132 -133 253 -180 428 -169 154 10 283 71 406 192 65 64 90 97 123 165
57 116 77 220 64 325 -15 123 -51 193 -152 298 -94 97 -171 147 -266 171 -72
19 -200 19 -278 0z m261 -259 c109 -26 136 -58 148 -178 16 -161 -78 -342
-212 -410 -133 -67 -326 -52 -367 30 -55 108 -31 303 50 410 78 102 160 145
308 162 6 0 38 -6 73 -14z"/>
<path d="M6280 7837 c-36 -13 -87 -37 -114 -54 -42 -26 -53 -29 -73 -20 -19 8
-23 17 -21 41 l3 31 -92 3 c-89 3 -93 2 -98 -20 -2 -13 -34 -239 -70 -503 -36
-264 -68 -490 -70 -502 -5 -21 -2 -23 32 -23 33 0 40 -5 53 -32 17 -37 56 -51
112 -42 76 12 76 12 118 305 21 146 45 288 53 316 48 161 155 254 296 256 95
1 107 -16 104 -143 -1 -60 -55 -486 -78 -627 -6 -33 -5 -33 33 -33 36 0 40 -3
45 -30 5 -24 14 -31 46 -40 57 -15 119 -3 138 27 11 16 30 118 54 291 42 299
50 335 84 401 51 102 133 153 246 153 143 1 147 -19 89 -438 -22 -164 -44
-314 -47 -331 -5 -33 -5 -33 36 -33 33 0 41 -4 41 -18 0 -49 92 -76 154 -47
46 22 48 28 90 345 46 344 49 375 36 454 -14 89 -39 137 -113 213 -79 82 -142
113 -244 120 -134 9 -248 -28 -342 -113 -48 -43 -52 -45 -73 -30 -12 9 -19 16
-15 16 16 0 -98 93 -132 108 -20 8 -76 17 -126 19 -76 3 -100 0 -155 -20z"/>
<path d="M8092 7840 c-100 -26 -176 -69 -261 -147 -201 -184 -268 -483 -156
-703 34 -68 124 -165 199 -217 94 -64 148 -78 301 -77 113 0 139 4 203 27 41
14 98 41 129 59 58 35 123 99 123 122 0 21 -51 80 -118 136 l-62 51 -57 -46
c-102 -83 -144 -100 -253 -100 -122 0 -182 25 -211 89 -23 50 -24 75 -3 104
l15 22 363 0 c228 0 374 4 393 10 17 6 36 23 43 38 29 63 21 250 -16 337 -14
35 -74 134 -74 123 0 -3 -28 22 -63 57 -100 100 -192 136 -345 134 -42 0 -110
-9 -150 -19z m325 -243 c32 -17 45 -44 58 -120 13 -81 26 -77 -261 -77 -197 0
-254 3 -254 13 1 17 49 78 90 113 59 50 66 54 121 75 66 24 196 22 246 -4z"/>
<path d="M11013 7840 c-84 -22 -136 -47 -218 -106 -74 -53 -110 -90 -168 -175
-71 -106 -92 -180 -92 -329 0 -124 0 -126 37 -202 25 -54 57 -98 100 -143 35
-36 61 -65 58 -65 -3 0 11 -10 30 -21 19 -12 38 -27 42 -33 4 -6 8 -7 8 -1 0
6 3 6 8 -1 11 -16 92 -51 150 -63 367 -78 752 239 752 620 0 92 -27 189 -72
257 -51 76 -171 186 -246 225 -116 60 -251 73 -389 37z m327 -273 c33 -16 51
-34 68 -67 21 -40 23 -55 19 -140 -7 -152 -56 -252 -162 -332 -67 -51 -133
-72 -225 -72 -94 0 -143 16 -175 59 -58 76 -59 237 -1 360 84 180 311 271 476
192z"/>
<path d="M12387 7849 c-41 -10 -107 -41 -149 -70 -14 -11 -37 -18 -50 -16 -18
3 -24 11 -26 40 l-3 37 -94 0 c-52 0 -96 -4 -100 -9 -5 -10 -145 -991 -145
-1023 0 -14 8 -18 35 -18 25 0 37 -5 41 -17 16 -51 53 -67 132 -57 34 5 46 12
58 35 8 16 30 140 49 277 38 268 59 352 107 418 56 78 155 124 269 124 69 0
96 19 109 75 16 67 12 110 -11 131 -12 10 -23 18 -25 17 -14 -9 -20 1 -16 26
3 23 0 29 -20 34 -32 9 -115 7 -161 -4z"/>
<path d="M2436 7818 c-3 -13 -35 -239 -71 -503 -36 -264 -68 -490 -70 -502 -5
-21 -2 -23 32 -23 33 0 40 -5 53 -32 18 -38 55 -51 116 -43 74 10 71 0 141
493 35 246 62 467 61 492 -3 39 -7 47 -33 60 -25 13 -30 20 -27 48 l3 32 -100
0 c-96 0 -101 -1 -105 -22z"/>
<path d="M8866 7832 c-3 -5 39 -240 92 -523 l98 -514 26 -3 c15 -2 30 -13 37
-28 32 -71 200 -71 246 -1 9 14 74 151 144 304 132 289 160 345 161 328 0 -5
29 -143 64 -305 63 -295 63 -295 90 -298 17 -2 30 -12 35 -26 15 -39 39 -50
111 -50 54 -1 74 3 97 20 21 16 70 112 205 405 98 211 196 423 218 472 23 48
40 98 38 110 -2 13 -16 28 -34 37 -24 13 -29 20 -23 35 17 43 13 45 -90 45
-67 0 -102 -4 -108 -12 -5 -7 -72 -158 -148 -335 -76 -178 -141 -323 -145
-323 -3 0 -29 120 -58 266 -51 265 -66 312 -103 321 -11 3 -22 17 -25 32 -3
14 -7 32 -10 39 -2 8 -33 12 -107 12 l-104 0 -93 -202 c-196 -430 -230 -495
-230 -445 0 36 -81 511 -90 527 -6 11 -22 27 -35 36 -14 9 -29 30 -33 48 l-8
31 -106 3 c-59 1 -109 -1 -112 -6z"/>
</g>
</svg>
